<?xml version="1.0" encoding="UTF-8" standalone="no"?>
<!-- Created with Inkscape (http://www.inkscape.org/) -->

<svg
   width="512"
   height="512"
   viewBox="0 0 135.46667 135.46667"
   version="1.1"
   id="svg1"
   inkscape:version="1.4 (e7c3feb100, 2024-10-09)"
   sodipodi:docname="file_ext_glsl_icon.svg"
   inkscape:export-filename="text_file_icon.png"
   inkscape:export-xdpi="96"
   inkscape:export-ydpi="96"
   xmlns:inkscape="http://www.inkscape.org/namespaces/inkscape"
   xmlns:sodipodi="http://sodipodi.sourceforge.net/DTD/sodipodi-0.dtd"
   xmlns="http://www.w3.org/2000/svg"
   xmlns:svg="http://www.w3.org/2000/svg">
  <sodipodi:namedview
     id="namedview1"
     pagecolor="#505050"
     bordercolor="#eeeeee"
     borderopacity="1"
     inkscape:showpageshadow="0"
     inkscape:pageopacity="0"
     inkscape:pagecheckerboard="0"
     inkscape:deskcolor="#505050"
     inkscape:document-units="px"
     inkscape:zoom="2.1241178"
     inkscape:cx="244.10134"
     inkscape:cy="251.16309"
     inkscape:window-width="1920"
     inkscape:window-height="1052"
     inkscape:window-x="3840"
     inkscape:window-y="0"
     inkscape:window-maximized="1"
     inkscape:current-layer="layer1" />
  <defs
     id="defs1">
    <inkscape:path-effect
       effect="fillet_chamfer"
       id="path-effect10"
       is_visible="true"
       lpeversion="1"
       nodesatellites_param="F,0,0,1,0,0,0,1 @ F,0,0,1,0,7.2837718,0,1 @ F,0,0,1,0,9.9013225,0,1 @ F,0,0,1,0,0,0,1"
       radius="0"
       unit="px"
       method="auto"
       mode="F"
       chamfer_steps="1"
       flexible="false"
       use_knot_distance="true"
       apply_no_radius="true"
       apply_with_radius="true"
       only_selected="false"
       hide_knots="false" />
    <inkscape:path-effect
       effect="fillet_chamfer"
       id="path-effect4"
       is_visible="true"
       lpeversion="1"
       nodesatellites_param="F,0,0,1,0,0,0,1 @ F,0,0,1,0,6.1237062,0,1 @ F,0,0,1,0,0,0,1"
       radius="0"
       unit="px"
       method="auto"
       mode="F"
       chamfer_steps="1"
       flexible="false"
       use_knot_distance="true"
       apply_no_radius="true"
       apply_with_radius="true"
       only_selected="false"
       hide_knots="false" />
    <inkscape:path-effect
       effect="fillet_chamfer"
       id="path-effect3"
       is_visible="true"
       lpeversion="1"
       nodesatellites_param="F,0,0,1,0,8.7954639,0,1 @ F,0,0,1,0,9.318893,0,1 @ F,0,0,1,0,4.6315833,0,1 @ F,0,0,1,0,6.0868111,0,1 @ F,0,0,1,0,12.507221,0,1"
       radius="0"
       unit="px"
       method="auto"
       mode="F"
       chamfer_steps="1"
       flexible="false"
       use_knot_distance="true"
       apply_no_radius="true"
       apply_with_radius="true"
       only_selected="false"
       hide_knots="false" />
    <inkscape:path-effect
       effect="fillet_chamfer"
       id="path-effect2"
       is_visible="true"
       lpeversion="1"
       nodesatellites_param="F,0,0,1,0,0,0,1 @ F,0,0,1,0,0,0,1 @ F,0,0,1,0,0,0,1 @ F,0,0,1,0,0,0,1"
       radius="0"
       unit="px"
       method="auto"
       mode="F"
       chamfer_steps="1"
       flexible="false"
       use_knot_distance="true"
       apply_no_radius="true"
       apply_with_radius="true"
       only_selected="false"
       hide_knots="false" />
  </defs>
  <g
     inkscape:label="Calque 1"
     inkscape:groupmode="layer"
     id="layer1">
    <path
       style="fill:none;stroke:#ffffff;stroke-width:5.29167;stroke-linejoin:round;stroke-dasharray:none;stroke-opacity:1"
       d="m 29.104167,104.97538 0,-73.166903 a 9.318893,9.318893 135 0 1 9.318893,-9.318893 h 42.934942 a 10.142992,10.142992 24.54281 0 1 7.664948,3.500037 l 10.178112,11.743976 a 16.317072,16.317072 69.54281 0 1 3.986438,10.686548 v 52.843475 a 12.507221,12.507221 135 0 1 -12.507221,12.50722 l -52.780648,0 a 8.7954639,8.7954639 45 0 1 -8.795464,-8.79546 z"
       id="path2"
       inkscape:path-effect="#path-effect3"
       inkscape:original-d="M 29.104167,113.77084 V 22.489584 h 56.885418 l 17.197915,19.84375 v 71.437506 z"
       sodipodi:nodetypes="cccccc" />
    <path
       style="fill:none;stroke:#ffffff;stroke-width:5.29167;stroke-linejoin:round;stroke-dasharray:none;stroke-opacity:1"
       d="m 85.989585,22.489584 v 13.720044 a 6.1237062,6.1237062 45 0 0 6.123706,6.123706 H 103.1875"
       id="path3"
       sodipodi:nodetypes="ccc"
       inkscape:path-effect="#path-effect4"
       inkscape:original-d="m 85.989585,22.489584 v 19.84375 H 103.1875" />
    <path
       id="path10"
       style="fill:#ffffff;fill-opacity:1;stroke:none;stroke-width:2.11667;stroke-linecap:round;stroke-linejoin:round;stroke-dasharray:none;stroke-opacity:1;paint-order:stroke fill markers"
       d="M 29.104167 82.020835 L 29.104167 106.48704 A 7.2837718 7.2837718 0 0 0 36.387961 113.77084 L 93.286298 113.77084 A 9.9013225 9.9013225 0 0 0 103.1875 103.86963 L 103.1875 82.020835 L 29.104167 82.020835 z M 41.792282 87.312502 C 43.017784 87.312502 44.189768 87.424175 45.308347 87.647365 C 46.435151 87.870556 47.495892 88.201143 48.491098 88.639553 L 48.491098 92.334418 C 47.462992 91.768471 46.439332 91.345783 45.419451 91.066795 C 44.407795 90.787807 43.391973 90.648216 42.372092 90.648216 C 40.480377 90.648216 39.020103 91.162487 37.991997 92.190757 C 36.972116 93.211057 36.462375 94.674031 36.462375 96.57912 C 36.462375 98.468268 36.955923 99.92681 37.942905 100.95508 C 38.929886 101.98335 40.332192 102.49762 42.149883 102.49762 C 42.643374 102.49762 43.099841 102.4697 43.519309 102.41391 C 43.947001 102.35014 44.329307 102.25412 44.666525 102.12659 L 44.666525 98.659613 L 41.767477 98.659613 L 41.767477 95.57453 L 49.16961 95.57453 L 49.16961 104.15954 C 47.985232 104.71751 46.755797 105.13577 45.480946 105.41476 C 44.206095 105.69374 42.889966 105.83334 41.532866 105.83334 C 38.464999 105.83334 36.034855 105.00414 34.241838 103.34615 C 32.448822 101.68019 31.55208 99.424798 31.55208 96.57912 C 31.55208 93.701558 32.465015 91.437301 34.290931 89.787287 C 36.116847 88.137272 38.617491 87.312502 41.792282 87.312502 z M 75.830515 87.312502 C 76.842171 87.312502 77.882542 87.388428 78.951772 87.539878 C 80.021002 87.683358 81.127179 87.902272 82.270433 88.197203 L 82.270433 91.975784 C 81.258776 91.537374 80.272197 91.20627 79.30989 90.983079 C 78.347583 90.759889 77.438308 90.648216 76.582924 90.648216 C 75.447895 90.648216 74.609122 90.800067 74.066282 91.102969 C 73.523442 91.40587 73.251861 91.876048 73.251861 92.513735 C 73.251861 92.992 73.433087 93.366681 73.794981 93.637698 C 74.165099 93.900743 74.831518 94.128004 75.793825 94.31931 L 77.816957 94.713601 C 79.864944 95.112155 81.320524 95.71801 82.184133 96.531061 C 83.047742 97.344112 83.479661 98.499986 83.479661 99.99855 C 83.479661 101.96741 82.875387 103.4343 81.666335 104.3988 C 80.465507 105.35533 78.627105 105.83334 76.151426 105.83334 C 74.983498 105.83334 73.811515 105.72558 72.635361 105.51036 C 71.459208 105.29514 70.283048 104.9763 69.106895 104.55383 L 69.106895 100.66828 C 70.283048 101.27408 71.41795 101.732 72.511855 102.04287 C 73.613984 102.34577 74.675242 102.49762 75.695123 102.49762 C 76.731454 102.49762 77.524792 102.33011 78.075856 101.99533 C 78.626921 101.66054 78.902679 101.18202 78.902679 100.56027 C 78.902679 100.0023 78.713615 99.572297 78.335272 99.269395 C 77.965154 98.966494 77.220396 98.695141 76.101817 98.456008 L 74.263686 98.061717 C 72.42132 97.679105 71.072288 97.069335 70.216904 96.232371 C 69.369745 95.395407 68.946181 94.267452 68.946181 92.848598 C 68.946181 91.071046 69.538439 89.704087 70.722817 88.747557 C 71.907195 87.791026 73.609807 87.312502 75.830515 87.312502 z M 53.3523 87.63548 L 58.101881 87.63548 L 58.101881 102.00721 L 66.441941 102.00721 L 66.441941 105.48659 L 53.3523 105.48659 L 53.3523 87.63548 z M 87.649432 87.63548 L 92.39953 87.63548 L 92.39953 102.00721 L 100.73959 102.00721 L 100.73959 105.48659 L 87.649432 105.48659 L 87.649432 87.63548 z " />
  </g>
</svg>
