<?xml version="1.0" encoding="UTF-8" standalone="no"?>
<!-- Created with Inkscape (http://www.inkscape.org/) -->

<svg
   width="512"
   height="512"
   viewBox="0 0 135.46667 135.46667"
   version="1.1"
   id="svg1"
   inkscape:version="1.4 (e7c3feb100, 2024-10-09)"
   sodipodi:docname="file_ext_owl_icon.svg"
   inkscape:export-filename="text_file_icon.png"
   inkscape:export-xdpi="96"
   inkscape:export-ydpi="96"
   xmlns:inkscape="http://www.inkscape.org/namespaces/inkscape"
   xmlns:sodipodi="http://sodipodi.sourceforge.net/DTD/sodipodi-0.dtd"
   xmlns="http://www.w3.org/2000/svg"
   xmlns:svg="http://www.w3.org/2000/svg">
  <sodipodi:namedview
     id="namedview1"
     pagecolor="#505050"
     bordercolor="#eeeeee"
     borderopacity="1"
     inkscape:showpageshadow="0"
     inkscape:pageopacity="0"
     inkscape:pagecheckerboard="0"
     inkscape:deskcolor="#505050"
     inkscape:document-units="px"
     inkscape:zoom="2.1241178"
     inkscape:cx="243.86595"
     inkscape:cy="251.16309"
     inkscape:window-width="1920"
     inkscape:window-height="1052"
     inkscape:window-x="1920"
     inkscape:window-y="0"
     inkscape:window-maximized="1"
     inkscape:current-layer="layer1" />
  <defs
     id="defs1">
    <inkscape:path-effect
       effect="fillet_chamfer"
       id="path-effect10"
       is_visible="true"
       lpeversion="1"
       nodesatellites_param="F,0,0,1,0,0,0,1 @ F,0,0,1,0,7.2837718,0,1 @ F,0,0,1,0,9.9013225,0,1 @ F,0,0,1,0,0,0,1"
       radius="0"
       unit="px"
       method="auto"
       mode="F"
       chamfer_steps="1"
       flexible="false"
       use_knot_distance="true"
       apply_no_radius="true"
       apply_with_radius="true"
       only_selected="false"
       hide_knots="false" />
    <inkscape:path-effect
       effect="fillet_chamfer"
       id="path-effect4"
       is_visible="true"
       lpeversion="1"
       nodesatellites_param="F,0,0,1,0,0,0,1 @ F,0,0,1,0,6.1237062,0,1 @ F,0,0,1,0,0,0,1"
       radius="0"
       unit="px"
       method="auto"
       mode="F"
       chamfer_steps="1"
       flexible="false"
       use_knot_distance="true"
       apply_no_radius="true"
       apply_with_radius="true"
       only_selected="false"
       hide_knots="false" />
    <inkscape:path-effect
       effect="fillet_chamfer"
       id="path-effect3"
       is_visible="true"
       lpeversion="1"
       nodesatellites_param="F,0,0,1,0,8.7954639,0,1 @ F,0,0,1,0,9.318893,0,1 @ F,0,0,1,0,4.6315833,0,1 @ F,0,0,1,0,6.0868111,0,1 @ F,0,0,1,0,12.507221,0,1"
       radius="0"
       unit="px"
       method="auto"
       mode="F"
       chamfer_steps="1"
       flexible="false"
       use_knot_distance="true"
       apply_no_radius="true"
       apply_with_radius="true"
       only_selected="false"
       hide_knots="false" />
    <inkscape:path-effect
       effect="fillet_chamfer"
       id="path-effect2"
       is_visible="true"
       lpeversion="1"
       nodesatellites_param="F,0,0,1,0,0,0,1 @ F,0,0,1,0,0,0,1 @ F,0,0,1,0,0,0,1 @ F,0,0,1,0,0,0,1"
       radius="0"
       unit="px"
       method="auto"
       mode="F"
       chamfer_steps="1"
       flexible="false"
       use_knot_distance="true"
       apply_no_radius="true"
       apply_with_radius="true"
       only_selected="false"
       hide_knots="false" />
  </defs>
  <g
     inkscape:label="Calque 1"
     inkscape:groupmode="layer"
     id="layer1">
    <path
       style="fill:none;stroke:#ffffff;stroke-width:5.29167;stroke-linejoin:round;stroke-dasharray:none;stroke-opacity:1"
       d="m 29.104167,104.97538 0,-73.166903 a 9.318893,9.318893 135 0 1 9.318893,-9.318893 h 42.934942 a 10.142992,10.142992 24.54281 0 1 7.664948,3.500037 l 10.178112,11.743976 a 16.317072,16.317072 69.54281 0 1 3.986438,10.686548 v 52.843475 a 12.507221,12.507221 135 0 1 -12.507221,12.50722 l -52.780648,0 a 8.7954639,8.7954639 45 0 1 -8.795464,-8.79546 z"
       id="path2"
       inkscape:path-effect="#path-effect3"
       inkscape:original-d="M 29.104167,113.77084 V 22.489584 h 56.885418 l 17.197915,19.84375 v 71.437506 z"
       sodipodi:nodetypes="cccccc" />
    <path
       style="fill:none;stroke:#ffffff;stroke-width:5.29167;stroke-linejoin:round;stroke-dasharray:none;stroke-opacity:1"
       d="m 85.989585,22.489584 v 13.720044 a 6.1237062,6.1237062 45 0 0 6.123706,6.123706 H 103.1875"
       id="path3"
       sodipodi:nodetypes="ccc"
       inkscape:path-effect="#path-effect4"
       inkscape:original-d="m 85.989585,22.489584 v 19.84375 H 103.1875" />
    <path
       id="path10"
       style="fill:#ffffff;fill-opacity:1;stroke:none;stroke-width:2.11667;stroke-linecap:round;stroke-linejoin:round;stroke-dasharray:none;stroke-opacity:1;paint-order:stroke fill markers"
       d="M 29.104167 82.020835 L 29.104167 106.48704 A 7.2837718 7.2837718 0 0 0 36.387961 113.77084 L 93.286298 113.77084 A 9.9013225 9.9013225 0 0 0 103.1875 103.86963 L 103.1875 82.020835 L 29.104167 82.020835 z M 43.870708 89.958336 C 46.831653 89.958336 49.151071 90.779191 50.82894 92.421234 C 52.506809 94.063278 53.346099 96.331449 53.346099 99.224954 C 53.346099 102.11049 52.506809 104.37423 50.82894 106.01627 C 49.151071 107.65831 46.831653 108.47917 43.870708 108.47917 C 40.917988 108.47917 38.59857 107.65831 36.912476 106.01627 C 35.234608 104.37423 34.395834 102.11049 34.395834 99.224954 C 34.395834 96.331449 35.234608 94.063278 36.912476 92.421234 C 38.59857 90.779191 40.917988 89.958336 43.870708 89.958336 z M 55.369232 90.281313 L 59.921925 90.281313 L 63.104677 103.25417 L 66.26314 90.281313 L 70.840122 90.281313 L 73.998586 103.25417 L 77.181337 90.281313 L 81.696824 90.281313 L 77.354453 108.13242 L 71.876235 108.13242 L 68.533286 94.561672 L 65.226511 108.13242 L 59.748809 108.13242 L 55.369232 90.281313 z M 84.806195 90.281313 L 89.555776 90.281313 L 89.555776 104.65305 L 97.895836 104.65305 L 97.895836 108.13242 L 84.806195 108.13242 L 84.806195 90.281313 z M 43.870708 93.294049 C 42.423135 93.294049 41.300765 93.812235 40.502955 94.848476 C 39.705145 95.884718 39.306129 97.343777 39.306129 99.224954 C 39.306129 101.09816 39.705145 102.55279 40.502955 103.58903 C 41.300765 104.62527 42.423135 105.14346 43.870708 105.14346 C 45.326506 105.14346 46.45357 104.62527 47.251381 103.58903 C 48.049191 102.55279 48.448207 101.09816 48.448207 99.224954 C 48.448207 97.343777 48.049191 95.884718 47.251381 94.848476 C 46.45357 93.812235 45.326506 93.294049 43.870708 93.294049 z " />
  </g>
</svg>
