<?xml version="1.0" encoding="UTF-8" standalone="no"?>
<!-- Created with Inkscape (http://www.inkscape.org/) -->

<svg
   width="512"
   height="512"
   viewBox="0 0 135.46667 135.46667"
   version="1.1"
   id="svg1"
   inkscape:version="1.4 (e7c3feb100, 2024-10-09)"
   sodipodi:docname="file_ext_svg_icon.svg"
   inkscape:export-filename="file_ext_svg_icon.png"
   inkscape:export-xdpi="96"
   inkscape:export-ydpi="96"
   xmlns:inkscape="http://www.inkscape.org/namespaces/inkscape"
   xmlns:sodipodi="http://sodipodi.sourceforge.net/DTD/sodipodi-0.dtd"
   xmlns="http://www.w3.org/2000/svg"
   xmlns:svg="http://www.w3.org/2000/svg">
  <sodipodi:namedview
     id="namedview1"
     pagecolor="#505050"
     bordercolor="#eeeeee"
     borderopacity="1"
     inkscape:showpageshadow="0"
     inkscape:pageopacity="0"
     inkscape:pagecheckerboard="0"
     inkscape:deskcolor="#505050"
     inkscape:document-units="px"
     inkscape:zoom="2.1241178"
     inkscape:cx="243.86595"
     inkscape:cy="251.16309"
     inkscape:window-width="1920"
     inkscape:window-height="1052"
     inkscape:window-x="3840"
     inkscape:window-y="0"
     inkscape:window-maximized="1"
     inkscape:current-layer="layer1" />
  <defs
     id="defs1">
    <inkscape:path-effect
       effect="fillet_chamfer"
       id="path-effect10"
       is_visible="true"
       lpeversion="1"
       nodesatellites_param="F,0,0,1,0,0,0,1 @ F,0,0,1,0,7.2837718,0,1 @ F,0,0,1,0,9.9013225,0,1 @ F,0,0,1,0,0,0,1"
       radius="0"
       unit="px"
       method="auto"
       mode="F"
       chamfer_steps="1"
       flexible="false"
       use_knot_distance="true"
       apply_no_radius="true"
       apply_with_radius="true"
       only_selected="false"
       hide_knots="false" />
    <inkscape:path-effect
       effect="fillet_chamfer"
       id="path-effect4"
       is_visible="true"
       lpeversion="1"
       nodesatellites_param="F,0,0,1,0,0,0,1 @ F,0,0,1,0,6.1237062,0,1 @ F,0,0,1,0,0,0,1"
       radius="0"
       unit="px"
       method="auto"
       mode="F"
       chamfer_steps="1"
       flexible="false"
       use_knot_distance="true"
       apply_no_radius="true"
       apply_with_radius="true"
       only_selected="false"
       hide_knots="false" />
    <inkscape:path-effect
       effect="fillet_chamfer"
       id="path-effect3"
       is_visible="true"
       lpeversion="1"
       nodesatellites_param="F,0,0,1,0,8.7954639,0,1 @ F,0,0,1,0,9.318893,0,1 @ F,0,0,1,0,4.6315833,0,1 @ F,0,0,1,0,6.0868111,0,1 @ F,0,0,1,0,12.507221,0,1"
       radius="0"
       unit="px"
       method="auto"
       mode="F"
       chamfer_steps="1"
       flexible="false"
       use_knot_distance="true"
       apply_no_radius="true"
       apply_with_radius="true"
       only_selected="false"
       hide_knots="false" />
    <inkscape:path-effect
       effect="fillet_chamfer"
       id="path-effect2"
       is_visible="true"
       lpeversion="1"
       nodesatellites_param="F,0,0,1,0,0,0,1 @ F,0,0,1,0,0,0,1 @ F,0,0,1,0,0,0,1 @ F,0,0,1,0,0,0,1"
       radius="0"
       unit="px"
       method="auto"
       mode="F"
       chamfer_steps="1"
       flexible="false"
       use_knot_distance="true"
       apply_no_radius="true"
       apply_with_radius="true"
       only_selected="false"
       hide_knots="false" />
  </defs>
  <g
     inkscape:label="Calque 1"
     inkscape:groupmode="layer"
     id="layer1">
    <path
       style="fill:none;stroke:#ffffff;stroke-width:5.29167;stroke-linejoin:round;stroke-dasharray:none;stroke-opacity:1"
       d="m 29.104167,104.97538 0,-73.166903 a 9.318893,9.318893 135 0 1 9.318893,-9.318893 h 42.934942 a 10.142992,10.142992 24.54281 0 1 7.664948,3.500037 l 10.178112,11.743976 a 16.317072,16.317072 69.54281 0 1 3.986438,10.686548 v 52.843475 a 12.507221,12.507221 135 0 1 -12.507221,12.50722 l -52.780648,0 a 8.7954639,8.7954639 45 0 1 -8.795464,-8.79546 z"
       id="path2"
       inkscape:path-effect="#path-effect3"
       inkscape:original-d="M 29.104167,113.77084 V 22.489584 h 56.885418 l 17.197915,19.84375 v 71.437506 z"
       sodipodi:nodetypes="cccccc" />
    <path
       style="fill:none;stroke:#ffffff;stroke-width:5.29167;stroke-linejoin:round;stroke-dasharray:none;stroke-opacity:1"
       d="m 85.989585,22.489584 v 13.720044 a 6.1237062,6.1237062 45 0 0 6.123706,6.123706 H 103.1875"
       id="path3"
       sodipodi:nodetypes="ccc"
       inkscape:path-effect="#path-effect4"
       inkscape:original-d="m 85.989585,22.489584 v 19.84375 H 103.1875" />
    <path
       id="path10"
       style="fill:#ffffff;fill-opacity:1;stroke:none;stroke-width:2.11667;stroke-linecap:round;stroke-linejoin:round;stroke-dasharray:none;stroke-opacity:1;paint-order:stroke fill markers"
       d="M 29.104167 82.020835 L 29.104167 106.48704 A 7.2837718 7.2837718 0 0 0 36.387961 113.77084 L 93.286298 113.77084 A 9.9013225 9.9013225 0 0 0 103.1875 103.86963 L 103.1875 82.020835 L 29.104167 82.020835 z M 46.867425 86.19164 C 47.835456 86.19164 48.830683 86.267049 49.853806 86.4185 C 50.876928 86.56198 51.935369 86.78141 53.029323 87.076341 L 53.029323 90.854405 C 52.061291 90.415994 51.117231 90.085408 50.196421 89.862217 C 49.27561 89.639027 48.405775 89.527354 47.587277 89.527354 C 46.501194 89.527354 45.698587 89.678688 45.179156 89.98159 C 44.659724 90.284492 44.399875 90.754669 44.399875 91.392357 C 44.399875 91.870623 44.572936 92.245302 44.919223 92.516319 C 45.273381 92.779365 45.910958 93.006625 46.831768 93.197931 L 48.768084 93.592739 C 50.727757 93.991294 52.120272 94.597147 52.94664 95.410199 C 53.773008 96.223251 54.186358 97.379121 54.186358 98.877688 C 54.186358 100.84655 53.607979 102.31292 52.451063 103.27742 C 51.302018 104.23395 49.542788 104.71247 47.173866 104.71247 C 46.056301 104.71247 44.935165 104.60472 43.80973 104.3895 C 42.684295 104.17428 41.558627 103.85543 40.433192 103.43297 L 40.433192 99.546898 C 41.558627 100.1527 42.644658 100.61113 43.691391 100.92201 C 44.745994 101.22491 45.761299 101.37624 46.7372 101.37624 C 47.728842 101.37624 48.488312 101.20873 49.015614 100.87395 C 49.542916 100.53916 49.80678 100.06116 49.80678 99.439411 C 49.80678 98.881434 49.625689 98.450919 49.263661 98.148017 C 48.909503 97.845115 48.197184 97.574279 47.12684 97.335146 L 45.367775 96.940338 C 43.604856 96.557726 42.314157 95.947958 41.495659 95.110993 C 40.685032 94.274027 40.279713 93.146076 40.279713 91.72722 C 40.279713 89.949665 40.846563 88.58271 41.979868 87.626178 C 43.113172 86.669646 44.742478 86.19164 46.867425 86.19164 z M 85.671259 86.19164 C 86.843914 86.19164 87.965051 86.302796 89.035394 86.525987 C 90.113608 86.749178 91.128913 87.080281 92.081203 87.518691 L 92.081203 91.213039 C 91.097432 90.647091 90.117749 90.224922 89.141848 89.945933 C 88.173817 89.666945 87.201648 89.527354 86.225747 89.527354 C 84.415607 89.527354 83.01856 90.041624 82.034788 91.069896 C 81.058887 92.090196 80.571311 93.552649 80.571311 95.457742 C 80.571311 97.346892 81.043342 98.805947 81.987762 99.834219 C 82.932183 100.86249 84.274049 101.37624 86.013357 101.37624 C 86.485567 101.37624 86.922492 101.34833 87.323871 101.29253 C 87.73312 101.22876 88.098801 101.13326 88.421478 101.00572 L 88.421478 97.538235 L 85.647487 97.538235 L 85.647487 94.453669 L 92.730776 94.453669 L 92.730776 103.03816 C 91.597471 103.59613 90.420636 104.01491 89.200759 104.29389 C 87.980882 104.57288 86.72179 104.71247 85.423212 104.71247 C 82.487638 104.71247 80.162074 103.88328 78.446376 102.22529 C 76.730679 100.55933 75.87289 98.303424 75.87289 95.457742 C 75.87289 92.580175 76.746224 90.316442 78.493402 88.666425 C 80.24058 87.016407 82.633372 86.19164 85.671259 86.19164 z M 56.075132 86.514101 L 60.643845 86.514101 L 65.319012 99.690558 L 69.981777 86.514101 L 74.55049 86.514101 L 68.022206 104.36573 L 62.603415 104.36573 L 56.075132 86.514101 z " />
  </g>
</svg>
