<?xml version="1.0" encoding="UTF-8" standalone="no"?>
<!-- Created with Inkscape (http://www.inkscape.org/) -->

<svg
   width="512"
   height="512"
   viewBox="0 0 135.46667 135.46667"
   version="1.1"
   id="svg1"
   inkscape:version="1.4 (e7c3feb100, 2024-10-09)"
   sodipodi:docname="file_ext_png_icon.svg"
   inkscape:export-filename="text_file_icon.png"
   inkscape:export-xdpi="96"
   inkscape:export-ydpi="96"
   xmlns:inkscape="http://www.inkscape.org/namespaces/inkscape"
   xmlns:sodipodi="http://sodipodi.sourceforge.net/DTD/sodipodi-0.dtd"
   xmlns="http://www.w3.org/2000/svg"
   xmlns:svg="http://www.w3.org/2000/svg">
  <sodipodi:namedview
     id="namedview1"
     pagecolor="#505050"
     bordercolor="#eeeeee"
     borderopacity="1"
     inkscape:showpageshadow="0"
     inkscape:pageopacity="0"
     inkscape:pagecheckerboard="0"
     inkscape:deskcolor="#505050"
     inkscape:document-units="px"
     inkscape:zoom="2.1241178"
     inkscape:cx="243.86595"
     inkscape:cy="251.16309"
     inkscape:window-width="1920"
     inkscape:window-height="1052"
     inkscape:window-x="1920"
     inkscape:window-y="0"
     inkscape:window-maximized="1"
     inkscape:current-layer="layer1" />
  <defs
     id="defs1">
    <inkscape:path-effect
       effect="fillet_chamfer"
       id="path-effect10"
       is_visible="true"
       lpeversion="1"
       nodesatellites_param="F,0,0,1,0,0,0,1 @ F,0,0,1,0,7.2837718,0,1 @ F,0,0,1,0,9.9013225,0,1 @ F,0,0,1,0,0,0,1"
       radius="0"
       unit="px"
       method="auto"
       mode="F"
       chamfer_steps="1"
       flexible="false"
       use_knot_distance="true"
       apply_no_radius="true"
       apply_with_radius="true"
       only_selected="false"
       hide_knots="false" />
    <inkscape:path-effect
       effect="fillet_chamfer"
       id="path-effect4"
       is_visible="true"
       lpeversion="1"
       nodesatellites_param="F,0,0,1,0,0,0,1 @ F,0,0,1,0,6.1237062,0,1 @ F,0,0,1,0,0,0,1"
       radius="0"
       unit="px"
       method="auto"
       mode="F"
       chamfer_steps="1"
       flexible="false"
       use_knot_distance="true"
       apply_no_radius="true"
       apply_with_radius="true"
       only_selected="false"
       hide_knots="false" />
    <inkscape:path-effect
       effect="fillet_chamfer"
       id="path-effect3"
       is_visible="true"
       lpeversion="1"
       nodesatellites_param="F,0,0,1,0,8.7954639,0,1 @ F,0,0,1,0,9.318893,0,1 @ F,0,0,1,0,4.6315833,0,1 @ F,0,0,1,0,6.0868111,0,1 @ F,0,0,1,0,12.507221,0,1"
       radius="0"
       unit="px"
       method="auto"
       mode="F"
       chamfer_steps="1"
       flexible="false"
       use_knot_distance="true"
       apply_no_radius="true"
       apply_with_radius="true"
       only_selected="false"
       hide_knots="false" />
    <inkscape:path-effect
       effect="fillet_chamfer"
       id="path-effect2"
       is_visible="true"
       lpeversion="1"
       nodesatellites_param="F,0,0,1,0,0,0,1 @ F,0,0,1,0,0,0,1 @ F,0,0,1,0,0,0,1 @ F,0,0,1,0,0,0,1"
       radius="0"
       unit="px"
       method="auto"
       mode="F"
       chamfer_steps="1"
       flexible="false"
       use_knot_distance="true"
       apply_no_radius="true"
       apply_with_radius="true"
       only_selected="false"
       hide_knots="false" />
  </defs>
  <g
     inkscape:label="Calque 1"
     inkscape:groupmode="layer"
     id="layer1">
    <path
       style="fill:none;stroke:#ffffff;stroke-width:5.29167;stroke-linejoin:round;stroke-dasharray:none;stroke-opacity:1"
       d="m 29.104167,104.97538 0,-73.166903 a 9.318893,9.318893 135 0 1 9.318893,-9.318893 h 42.934942 a 10.142992,10.142992 24.54281 0 1 7.664948,3.500037 l 10.178112,11.743976 a 16.317072,16.317072 69.54281 0 1 3.986438,10.686548 v 52.843475 a 12.507221,12.507221 135 0 1 -12.507221,12.50722 l -52.780648,0 a 8.7954639,8.7954639 45 0 1 -8.795464,-8.79546 z"
       id="path2"
       inkscape:path-effect="#path-effect3"
       inkscape:original-d="M 29.104167,113.77084 V 22.489584 h 56.885418 l 17.197915,19.84375 v 71.437506 z"
       sodipodi:nodetypes="cccccc" />
    <path
       style="fill:none;stroke:#ffffff;stroke-width:5.29167;stroke-linejoin:round;stroke-dasharray:none;stroke-opacity:1"
       d="m 85.989585,22.489584 v 13.720044 a 6.1237062,6.1237062 45 0 0 6.123706,6.123706 H 103.1875"
       id="path3"
       sodipodi:nodetypes="ccc"
       inkscape:path-effect="#path-effect4"
       inkscape:original-d="m 85.989585,22.489584 v 19.84375 H 103.1875" />
    <path
       id="path10"
       style="fill:#ffffff;fill-opacity:1;stroke:none;stroke-width:2.11667;stroke-linecap:round;stroke-linejoin:round;stroke-dasharray:none;stroke-opacity:1;paint-order:stroke fill markers"
       d="M 29.104167 82.020835 L 29.104167 106.48704 A 7.2837718 7.2837718 0 0 0 36.387961 113.77084 L 93.286298 113.77084 A 9.9013225 9.9013225 0 0 0 103.1875 103.86963 L 103.1875 82.020835 L 29.104167 82.020835 z M 86.823126 89.958336 C 88.048628 89.958336 89.220612 90.070008 90.339191 90.293199 C 91.465995 90.516389 92.527253 90.846977 93.522459 91.285386 L 93.522459 94.980251 C 92.494353 94.414304 91.470176 93.991616 90.450295 93.712628 C 89.438639 93.43364 88.422817 93.294049 87.402936 93.294049 C 85.511221 93.294049 84.051464 93.808321 83.023358 94.836591 C 82.003477 95.85689 81.493219 97.319864 81.493219 99.224954 C 81.493219 101.1141 81.986767 102.57264 82.973749 103.60091 C 83.96073 104.62918 85.363036 105.14346 87.180727 105.14346 C 87.674218 105.14346 88.130686 105.11554 88.550153 105.05974 C 88.977845 104.99597 89.360668 104.89996 89.697886 104.77242 L 89.697886 101.30493 L 86.798322 101.30493 L 86.798322 98.220364 L 94.200971 98.220364 L 94.200971 106.80537 C 93.016593 107.36335 91.786641 107.7816 90.51179 108.06059 C 89.236939 108.33958 87.921327 108.47917 86.564227 108.47917 C 83.49636 108.47917 81.065699 107.64997 79.272683 105.99198 C 77.479666 104.32603 76.582924 102.07063 76.582924 99.224954 C 76.582924 96.347391 77.495859 94.083135 79.321775 92.43312 C 81.147691 90.783105 83.648336 89.958336 86.823126 89.958336 z M 37.979595 90.281313 L 45.863352 90.281313 C 48.207433 90.281313 50.004577 90.787239 51.254754 91.799567 C 52.513155 92.803924 53.142494 94.23898 53.142494 96.104214 C 53.142494 97.977419 52.513155 99.419787 51.254754 100.43212 C 50.004577 101.43647 48.207433 101.939 45.863352 101.939 L 42.729693 101.939 L 42.729693 108.13242 L 37.979595 108.13242 L 37.979595 90.281313 z M 56.497845 90.281313 L 61.802947 90.281313 L 68.50228 102.52501 L 68.50228 90.281313 L 73.005365 90.281313 L 73.005365 108.13242 L 67.700262 108.13242 L 61.000929 95.888723 L 61.000929 108.13242 L 56.497845 108.13242 L 56.497845 90.281313 z M 42.729693 93.617027 L 42.729693 98.602769 L 45.357439 98.602769 C 46.278622 98.602769 46.98996 98.387769 47.491676 97.957331 C 47.993392 97.518921 48.244602 96.901322 48.244602 96.104214 C 48.244602 95.307105 47.993392 94.693421 47.491676 94.262982 C 46.98996 93.832544 46.278622 93.617027 45.357439 93.617027 L 42.729693 93.617027 z " />
  </g>
</svg>
