<?xml version="1.0" encoding="UTF-8" standalone="no"?>
<!-- Created with Inkscape (http://www.inkscape.org/) -->

<svg
   width="512"
   height="512"
   viewBox="0 0 135.46667 135.46667"
   version="1.1"
   id="svg1"
   inkscape:version="1.4 (e7c3feb100, 2024-10-09)"
   sodipodi:docname="file_ext_json_icon.svg"
   inkscape:export-filename="text_file_icon.png"
   inkscape:export-xdpi="96"
   inkscape:export-ydpi="96"
   xmlns:inkscape="http://www.inkscape.org/namespaces/inkscape"
   xmlns:sodipodi="http://sodipodi.sourceforge.net/DTD/sodipodi-0.dtd"
   xmlns="http://www.w3.org/2000/svg"
   xmlns:svg="http://www.w3.org/2000/svg">
  <sodipodi:namedview
     id="namedview1"
     pagecolor="#505050"
     bordercolor="#eeeeee"
     borderopacity="1"
     inkscape:showpageshadow="0"
     inkscape:pageopacity="0"
     inkscape:pagecheckerboard="0"
     inkscape:deskcolor="#505050"
     inkscape:document-units="px"
     inkscape:zoom="2.1241178"
     inkscape:cx="243.86595"
     inkscape:cy="251.16309"
     inkscape:window-width="1920"
     inkscape:window-height="1052"
     inkscape:window-x="3840"
     inkscape:window-y="0"
     inkscape:window-maximized="1"
     inkscape:current-layer="layer1" />
  <defs
     id="defs1">
    <inkscape:path-effect
       effect="fillet_chamfer"
       id="path-effect10"
       is_visible="true"
       lpeversion="1"
       nodesatellites_param="F,0,0,1,0,0,0,1 @ F,0,0,1,0,7.2837718,0,1 @ F,0,0,1,0,9.9013225,0,1 @ F,0,0,1,0,0,0,1"
       radius="0"
       unit="px"
       method="auto"
       mode="F"
       chamfer_steps="1"
       flexible="false"
       use_knot_distance="true"
       apply_no_radius="true"
       apply_with_radius="true"
       only_selected="false"
       hide_knots="false" />
    <inkscape:path-effect
       effect="fillet_chamfer"
       id="path-effect4"
       is_visible="true"
       lpeversion="1"
       nodesatellites_param="F,0,0,1,0,0,0,1 @ F,0,0,1,0,6.1237062,0,1 @ F,0,0,1,0,0,0,1"
       radius="0"
       unit="px"
       method="auto"
       mode="F"
       chamfer_steps="1"
       flexible="false"
       use_knot_distance="true"
       apply_no_radius="true"
       apply_with_radius="true"
       only_selected="false"
       hide_knots="false" />
    <inkscape:path-effect
       effect="fillet_chamfer"
       id="path-effect3"
       is_visible="true"
       lpeversion="1"
       nodesatellites_param="F,0,0,1,0,8.7954639,0,1 @ F,0,0,1,0,9.318893,0,1 @ F,0,0,1,0,4.6315833,0,1 @ F,0,0,1,0,6.0868111,0,1 @ F,0,0,1,0,12.507221,0,1"
       radius="0"
       unit="px"
       method="auto"
       mode="F"
       chamfer_steps="1"
       flexible="false"
       use_knot_distance="true"
       apply_no_radius="true"
       apply_with_radius="true"
       only_selected="false"
       hide_knots="false" />
    <inkscape:path-effect
       effect="fillet_chamfer"
       id="path-effect2"
       is_visible="true"
       lpeversion="1"
       nodesatellites_param="F,0,0,1,0,0,0,1 @ F,0,0,1,0,0,0,1 @ F,0,0,1,0,0,0,1 @ F,0,0,1,0,0,0,1"
       radius="0"
       unit="px"
       method="auto"
       mode="F"
       chamfer_steps="1"
       flexible="false"
       use_knot_distance="true"
       apply_no_radius="true"
       apply_with_radius="true"
       only_selected="false"
       hide_knots="false" />
  </defs>
  <g
     inkscape:label="Calque 1"
     inkscape:groupmode="layer"
     id="layer1">
    <path
       style="fill:none;stroke:#ffffff;stroke-width:5.29167;stroke-linejoin:round;stroke-dasharray:none;stroke-opacity:1"
       d="m 29.104167,104.97538 0,-73.166903 a 9.318893,9.318893 135 0 1 9.318893,-9.318893 h 42.934942 a 10.142992,10.142992 24.54281 0 1 7.664948,3.500037 l 10.178112,11.743976 a 16.317072,16.317072 69.54281 0 1 3.986438,10.686548 v 52.843475 a 12.507221,12.507221 135 0 1 -12.507221,12.50722 l -52.780648,0 a 8.7954639,8.7954639 45 0 1 -8.795464,-8.79546 z"
       id="path2"
       inkscape:path-effect="#path-effect3"
       inkscape:original-d="M 29.104167,113.77084 V 22.489584 h 56.885418 l 17.197915,19.84375 v 71.437506 z"
       sodipodi:nodetypes="cccccc" />
    <path
       style="fill:none;stroke:#ffffff;stroke-width:5.29167;stroke-linejoin:round;stroke-dasharray:none;stroke-opacity:1"
       d="m 85.989585,22.489584 v 13.720044 a 6.1237062,6.1237062 45 0 0 6.123706,6.123706 H 103.1875"
       id="path3"
       sodipodi:nodetypes="ccc"
       inkscape:path-effect="#path-effect4"
       inkscape:original-d="m 85.989585,22.489584 v 19.84375 H 103.1875" />
    <path
       id="path10"
       style="fill:#ffffff;fill-opacity:1;stroke:none;stroke-width:2.11667;stroke-linecap:round;stroke-linejoin:round;stroke-dasharray:none;stroke-opacity:1;paint-order:stroke fill markers"
       d="M 29.104167 82.020835 L 29.104167 106.48704 A 7.2837718 7.2837718 0 0 0 36.387961 113.77084 L 93.286298 113.77084 A 9.9013225 9.9013225 0 0 0 103.1875 103.86963 L 103.1875 82.020835 L 29.104167 82.020835 z M 50.996888 84.821181 C 51.96492 84.821181 52.960147 84.897107 53.98327 85.048558 C 55.006392 85.192037 56.065349 85.410951 57.159303 85.705882 L 57.159303 89.484463 C 56.191272 89.046052 55.246694 88.714949 54.325884 88.491758 C 53.405074 88.268568 52.535239 88.157412 51.716741 88.157412 C 50.630657 88.157412 49.828051 88.308746 49.308619 88.611648 C 48.789188 88.914549 48.529339 89.384726 48.529339 90.022414 C 48.529339 90.50068 48.702399 90.875359 49.048687 91.146377 C 49.402845 91.409423 50.040422 91.636683 50.961232 91.827989 L 52.897548 92.22228 C 54.857221 92.620835 56.250253 93.226688 57.076621 94.03974 C 57.902989 94.852792 58.315822 96.008662 58.315822 97.507229 C 58.315822 99.476091 57.737442 100.94297 56.580527 101.90748 C 55.431482 102.86401 53.672768 103.34202 51.303846 103.34202 C 50.186282 103.34202 49.064628 103.23426 47.939194 103.01904 C 46.813759 102.80382 45.68809 102.48497 44.562656 102.06251 L 44.562656 98.176956 C 45.68809 98.782759 46.774639 99.241193 47.821372 99.552065 C 48.875975 99.854967 49.890763 100.0063 50.866664 100.0063 C 51.858306 100.0063 52.617776 99.838793 53.145078 99.504006 C 53.672379 99.16922 53.936244 98.691214 53.936244 98.069469 C 53.936244 97.511492 53.755153 97.080976 53.393125 96.778074 C 53.038967 96.475173 52.326648 96.20382 51.256304 95.964687 L 49.497238 95.570396 C 47.73432 95.187783 46.443621 94.578016 45.625123 93.74105 C 44.814495 92.904085 44.409177 91.776133 44.409177 90.357278 C 44.409177 88.579722 44.976027 87.212768 46.109331 86.256236 C 47.242636 85.299704 48.871942 84.821181 50.996888 84.821181 z M 70.357464 84.821181 C 73.190726 84.821181 75.409941 85.642034 77.015456 87.28408 C 78.620971 88.926127 79.423578 91.19429 79.423578 94.087799 C 79.423578 96.973337 78.620971 99.23707 77.015456 100.87912 C 75.409941 102.52116 73.190726 103.34202 70.357464 103.34202 C 67.532073 103.34202 65.312341 102.52116 63.698956 100.87912 C 62.093441 99.23707 61.290834 96.973337 61.290834 94.087799 C 61.290834 91.19429 62.093441 88.926127 63.698956 87.28408 C 65.312341 85.642034 67.532073 84.821181 70.357464 84.821181 z M 35.898068 85.144159 L 40.44301 85.144159 L 40.44301 101.26152 C 40.44301 103.48546 39.844554 105.14777 38.648288 106.24778 C 37.459892 107.34779 35.658042 107.89781 33.241899 107.89781 L 32.321025 107.89781 L 32.321025 104.41844 L 33.028993 104.41844 C 33.973413 104.41844 34.685733 104.151 35.165813 103.61693 C 35.653764 103.08287 35.898068 102.29776 35.898068 101.26152 L 35.898068 85.144159 z M 82.859027 85.144159 L 87.935203 85.144159 L 94.345665 97.387856 L 94.345665 85.144159 L 98.654446 85.144159 L 98.654446 102.99527 L 93.57827 102.99527 L 87.167808 90.751569 L 87.167808 102.99527 L 82.859027 102.99527 L 82.859027 85.144159 z M 70.357464 88.157412 C 68.972314 88.157412 67.897812 88.675079 67.134405 89.711322 C 66.370998 90.747565 65.989255 92.20662 65.989255 94.087799 C 65.989255 95.961008 66.370998 97.415631 67.134405 98.451874 C 67.897812 99.488117 68.972314 100.0063 70.357464 100.0063 C 71.750485 100.0063 72.828486 99.488117 73.591892 98.451874 C 74.355299 97.415631 74.737042 95.961008 74.737042 94.087799 C 74.737042 92.20662 74.355299 90.747565 73.591892 89.711322 C 72.828486 88.675079 71.750485 88.157412 70.357464 88.157412 z " />
  </g>
</svg>
