<?xml version="1.0" encoding="UTF-8" standalone="no"?>
<!-- Created with Inkscape (http://www.inkscape.org/) -->

<svg
   xmlns:dc="http://purl.org/dc/elements/1.1/"
   xmlns:cc="http://creativecommons.org/ns#"
   xmlns:rdf="http://www.w3.org/1999/02/22-rdf-syntax-ns#"
   xmlns:svg="http://www.w3.org/2000/svg"
   xmlns="http://www.w3.org/2000/svg"
   xmlns:sodipodi="http://sodipodi.sourceforge.net/DTD/sodipodi-0.dtd"
   xmlns:inkscape="http://www.inkscape.org/namespaces/inkscape"
   width="800"
   height="800"
   viewBox="0 0 211.66666 211.66667"
   version="1.1"
   id="svg8"
   inkscape:version="0.92.4 (5da689c313, 2019-01-14)"
   sodipodi:docname="logo_owl_black.svg">
  <defs
     id="defs2" />
  <sodipodi:namedview
     id="base"
     pagecolor="#ffffff"
     bordercolor="#666666"
     borderopacity="1.0"
     inkscape:pageopacity="0.0"
     inkscape:pageshadow="2"
     inkscape:zoom="0.49497475"
     inkscape:cx="661.9204"
     inkscape:cy="387.81148"
     inkscape:document-units="mm"
     inkscape:current-layer="layer2"
     showgrid="false"
     units="px"
     inkscape:window-width="1920"
     inkscape:window-height="1017"
     inkscape:window-x="3832"
     inkscape:window-y="-8"
     inkscape:window-maximized="1" />
  <metadata
     id="metadata5">
    <rdf:RDF>
      <cc:Work
         rdf:about="">
        <dc:format>image/svg+xml</dc:format>
        <dc:type
           rdf:resource="http://purl.org/dc/dcmitype/StillImage" />
        <dc:title></dc:title>
      </cc:Work>
    </rdf:RDF>
  </metadata>
  <g
     inkscape:groupmode="layer"
     id="layer2"
     inkscape:label="Calque 2"
     style="display:inline">
    <path
       style="fill:#000000;fill-opacity:1;stroke:none;stroke-width:0.26458332px;stroke-linecap:butt;stroke-linejoin:miter;stroke-opacity:1"
       d="m 106.50668,23.899316 c -14.95263,0.0364 -37.146134,10.175273 -37.284032,32.205786 -0.145097,23.179963 21.634908,33.578482 38.754222,33.27497 21.26439,-0.376999 34.80371,-16.557942 34.74517,-34.47748 -0.0597,-18.285841 -20.32437,-31.041958 -36.21536,-31.003276 z m -13.440528,12.0897 c 5.456822,-0.0493 11.621188,2.614327 14.643548,5.282367 3.0751,-3.262508 11.99262,-6.536788 17.7736,-4.543393 7.17642,2.474579 13.74086,6.653646 13.89785,18.04076 0.24607,17.847799 -23.39585,30.639562 -31.80529,30.869434 C 99.166425,85.868054 76.583206,72.925053 75.771086,54.902592 75.436115,47.468999 81.764538,39.336181 88.7336,36.72799 c 1.332526,-0.4987 2.804644,-0.725168 4.332552,-0.738974 z"
       id="path4530"
       inkscape:connector-curvature="0" />
    <path
       style="fill:#000000;fill-opacity:1;stroke:none;stroke-width:0.26458332px;stroke-linecap:butt;stroke-linejoin:miter;stroke-opacity:1"
       d="m 109.84778,67.330378 c 2.46675,-2.046094 3.0498,-5.134001 5.61265,-6.280835 2.81717,0.80368 6.38107,1.181474 8.95353,-0.534539 4.67468,-3.11834 3.34568,-5.027413 5.34539,-8.285354 -4.08834,0.986283 -7.37878,-0.05729 -10.69077,0.400904 -4.25526,0.588689 -5.49747,5.9859 -5.21176,6.414468 -1.64657,2.58884 -2.81673,4.0394 -4.00904,8.285356 z"
       id="path4537"
       inkscape:connector-curvature="0"
       sodipodi:nodetypes="ccscscc" />
    <path
       sodipodi:nodetypes="ccscscc"
       inkscape:connector-curvature="0"
       id="path4539"
       d="m 103.87241,67.196743 c -2.46675,-2.046094 -3.0498,-5.134001 -5.612654,-6.280835 -2.81717,0.80368 -6.38107,1.181474 -8.95353,-0.534539 -4.67468,-3.11834 -3.34568,-5.027413 -5.34539,-8.285354 4.08834,0.986283 7.37878,-0.05729 10.69077,0.400904 4.25526,0.588689 5.497474,5.9859 5.21176,6.414468 1.646574,2.58884 2.816734,4.0394 4.009044,8.285356 z"
       style="fill:#000000;fill-opacity:1;stroke:none;stroke-width:0.26458332px;stroke-linecap:butt;stroke-linejoin:miter;stroke-opacity:1" />
    <path
       style="display:inline;fill:#000000;fill-opacity:1;stroke:none;stroke-width:0.26458332px;stroke-linecap:butt;stroke-linejoin:miter;stroke-opacity:1"
       d="m 88.146272,192.04161 c -10.616276,-24.03785 -4.413875,-46.44816 6.614584,-70.30356 4.33128,-9.3689 9.314104,-19.11567 8.004314,-32.462076 -6.955547,-1.521716 -13.98194,-2.118269 -24.068302,-10.438233 -11.849172,9.95322 -16.803632,25.323729 -18.709822,43.089299 -0.382707,29.88427 16.944928,53.26248 28.159226,70.11457 z"
       id="path4543"
       inkscape:connector-curvature="0"
       sodipodi:nodetypes="cscccc" />
    <path
       style="display:inline;fill:#000000;fill-opacity:1;stroke:none;stroke-width:0.26458332px;stroke-linecap:butt;stroke-linejoin:miter;stroke-opacity:1"
       d="m 128.96771,99.248461 c -0.5238,28.799969 -6.84745,53.164749 -16.44196,75.028279 9.08638,-7.5252 19.32006,-17.31004 24.00148,-34.58482 3.13859,-25.25873 -5.25274,-36.55459 -7.55952,-40.443459 z"
       id="path4545"
       inkscape:connector-curvature="0"
       sodipodi:nodetypes="cccc" />
    <path
       style="display:inline;fill:#000000;fill-opacity:1;stroke:none;stroke-width:0.26458332px;stroke-linecap:butt;stroke-linejoin:miter;stroke-opacity:1"
       d="m 107.04145,66.76243 -3.30729,2.55134 c 0.26094,6.5227 2.45692,9.8836 3.18918,11.4574 0.8796,-1.59018 3.16891,-4.89612 3.26004,-11.67001 z"
       id="path4541"
       inkscape:connector-curvature="0"
       sodipodi:nodetypes="ccccc" />
  </g>
</svg>
