<?xml version="1.0" encoding="UTF-8" standalone="no"?>
<!-- Created with Inkscape (http://www.inkscape.org/) -->

<svg
   width="300"
   height="300"
   viewBox="0 0 79.374998 79.375"
   version="1.1"
   id="svg5520"
   inkscape:version="1.2.1 (9c6d41e410, 2022-07-14)"
   sodipodi:docname="GaugeCompas.svg"
   inkscape:export-filename="..\..\assets\textures\GaugeAltCursor.png"
   inkscape:export-xdpi="96"
   inkscape:export-ydpi="96"
   xmlns:inkscape="http://www.inkscape.org/namespaces/inkscape"
   xmlns:sodipodi="http://sodipodi.sourceforge.net/DTD/sodipodi-0.dtd"
   xmlns:xlink="http://www.w3.org/1999/xlink"
   xmlns="http://www.w3.org/2000/svg"
   xmlns:svg="http://www.w3.org/2000/svg">
  <sodipodi:namedview
     id="namedview5522"
     pagecolor="#505050"
     bordercolor="#ffffff"
     borderopacity="1"
     inkscape:showpageshadow="0"
     inkscape:pageopacity="0"
     inkscape:pagecheckerboard="1"
     inkscape:deskcolor="#505050"
     inkscape:document-units="mm"
     showgrid="false"
     inkscape:zoom="1.3609441"
     inkscape:cx="177.08295"
     inkscape:cy="168.26554"
     inkscape:current-layer="layer1">
    <inkscape:grid
       type="xygrid"
       id="grid5576" />
  </sodipodi:namedview>
  <defs
     id="defs5517">
    <inkscape:path-effect
       effect="skeletal"
       id="path-effect5185"
       is_visible="true"
       lpeversion="1"
       pattern="M 0.1395605,0 V 6.6145831 Z M 12.031341,0 V 6.6145831 Z M 4.108827,0.66145802 V 5.953125 Z m 3.9527303,0 V 5.953125 Z M 2.1327201,1.322916 v 3.9687501 z m 3.952731,0 v 3.9687501 z m 3.9527299,0 v 3.9687501 z"
       copytype="repeated_stretched"
       prop_scale="0.6"
       scale_y_rel="false"
       spacing="0"
       normal_offset="0"
       tang_offset="0"
       prop_units="false"
       vertical_pattern="false"
       hide_knot="false"
       fuse_tolerance="0" />
    <inkscape:path-effect
       effect="skeletal"
       id="path-effect2155"
       is_visible="true"
       lpeversion="1"
       pattern="M 0.26458362,-1.2609354e-7 V 5.2916669 Z m 1.73891198,0 V 3.96875 Z m 1.7073891,0 V 3.96875 Z m 1.7073899,0 V 3.96875 Z m 1.707389,0 V 3.96875 Z m 1.7668171,0 V 6.6145839 Z m 1.7668173,0 V 3.96875 Z m 1.70739,0 V 3.96875 Z m 1.707389,0 V 3.96875 Z m 1.707389,0 V 3.96875 Z m 1.738912,0 V 5.2916669 Z"
       copytype="repeated_stretched"
       prop_scale="0.8"
       scale_y_rel="false"
       spacing="0"
       normal_offset="0"
       tang_offset="0"
       prop_units="false"
       vertical_pattern="false"
       hide_knot="false"
       fuse_tolerance="0" />
    <inkscape:path-effect
       effect="skeletal"
       id="path-effect6440"
       is_visible="true"
       lpeversion="1"
       pattern="M 0.22239349,-7.7476519e-7 V 5.0400013 Z m 3.45675201,0 V 3.7801304 Z m 3.4567511,0 V 3.7801304 Z m 3.4552954,0 V 3.7801304 Z m 3.456747,0 V 3.7801304 Z m 3.456751,0 V 5.0400013 Z"
       copytype="repeated_stretched"
       prop_scale="1"
       scale_y_rel="false"
       spacing="0"
       normal_offset="0"
       tang_offset="0"
       prop_units="false"
       vertical_pattern="false"
       hide_knot="false"
       fuse_tolerance="0" />
    <inkscape:path-effect
       effect="skeletal"
       id="path-effect6416"
       is_visible="true"
       lpeversion="1"
       pattern="M 0.53148214,-0.30497799 0.49238103,4.7348725 Z m 3.45664806,0.026818 -0.029327,3.78001738 z m 3.456647,0.026818 -0.029327,3.78001737 z m 3.4551908,0.0268067 -0.02933,3.78001736 z m 3.456643,0.026818 -0.02933,3.78001739 z m 3.456647,0.026818 -0.0391,5.03985048 z"
       copytype="repeated_stretched"
       prop_scale="1"
       scale_y_rel="false"
       spacing="0"
       normal_offset="0"
       tang_offset="0"
       prop_units="false"
       vertical_pattern="false"
       hide_knot="false"
       fuse_tolerance="0" />
    <inkscape:path-effect
       effect="skeletal"
       id="path-effect4824"
       is_visible="true"
       lpeversion="1"
       pattern="m -9.9732335,13.872707 1.5318688,4.801562 z m 3.2932148,-1.050652 1.148941,3.601295 z m 3.2932139,-1.050653 1.1489411,3.601295 z m 3.29182685,-1.050209 1.14894105,3.601295 z M 3.198232,9.6705418 4.347173,13.271837 Z M 6.4914461,8.6198895 8.023315,13.421452 Z"
       copytype="repeated_stretched"
       prop_scale="1"
       scale_y_rel="false"
       spacing="0"
       normal_offset="0"
       tang_offset="0"
       prop_units="false"
       vertical_pattern="false"
       hide_knot="false"
       fuse_tolerance="0" />
    <inkscape:path-effect
       effect="skeletal"
       id="path-effect1425"
       is_visible="true"
       lpeversion="1"
       pattern="M 2.0281726,3.1732305e-7 V 3.4705893 Z m 1.5651,0 V 3.4705893 Z m 1.564354,0 V 3.4705893 Z m 1.5651001,0 V 3.4705893 Z M 0.39904056,0.04496032 V 4.6720673 Z m 7.95281814,0 V 4.6720673 Z"
       copytype="repeated_stretched"
       prop_scale="1"
       scale_y_rel="false"
       spacing="0"
       normal_offset="0"
       tang_offset="0"
       prop_units="true"
       vertical_pattern="false"
       hide_knot="false"
       fuse_tolerance="0" />
    <linearGradient
       inkscape:collect="always"
       id="linearGradient20020">
      <stop
         style="stop-color:#141414;stop-opacity:1;"
         offset="0"
         id="stop20016" />
      <stop
         style="stop-color:#292929;stop-opacity:1;"
         offset="1"
         id="stop20018" />
    </linearGradient>
    <linearGradient
       inkscape:collect="always"
       id="linearGradient20014">
      <stop
         style="stop-color:#454545;stop-opacity:1;"
         offset="0"
         id="stop20010" />
      <stop
         style="stop-color:#1a1a1a;stop-opacity:1;"
         offset="1"
         id="stop20012" />
    </linearGradient>
    <linearGradient
       inkscape:collect="always"
       id="linearGradient19996">
      <stop
         style="stop-color:#181919;stop-opacity:1;"
         offset="0"
         id="stop19992" />
      <stop
         style="stop-color:#1c1c1c;stop-opacity:1;"
         offset="0.5"
         id="stop20004" />
      <stop
         style="stop-color:#4a4c4c;stop-opacity:1;"
         offset="0.75"
         id="stop20006" />
      <stop
         style="stop-color:#0e0f0f;stop-opacity:1;"
         offset="1"
         id="stop19994" />
    </linearGradient>
    <linearGradient
       inkscape:collect="always"
       id="linearGradient19258">
      <stop
         style="stop-color:#292929;stop-opacity:1;"
         offset="0"
         id="stop19254" />
      <stop
         style="stop-color:#141414;stop-opacity:1;"
         offset="1"
         id="stop19256" />
    </linearGradient>
    <linearGradient
       inkscape:collect="always"
       id="linearGradient14175">
      <stop
         style="stop-color:#2a2a2a;stop-opacity:1;"
         offset="0"
         id="stop14171" />
      <stop
         style="stop-color:#0e0e0e;stop-opacity:1;"
         offset="0.33935744"
         id="stop14179" />
      <stop
         style="stop-color:#313131;stop-opacity:1;"
         offset="1"
         id="stop14173" />
    </linearGradient>
    <inkscape:path-effect
       effect="skeletal"
       id="path-effect11971"
       is_visible="true"
       lpeversion="1"
       pattern="M 0.39687603,5.5893229e-8 V 5.2916672 Z m 2.19624797,0 V 3.96875 Z m 2.06344,0 V 3.96875 Z m 2.0639572,0 V 3.96875 Z m 2.0634399,0 V 3.96875 Z m 2.1962499,0 V 5.2916672 Z"
       copytype="repeated_stretched"
       prop_scale="0.8"
       scale_y_rel="false"
       spacing="0"
       normal_offset="0"
       tang_offset="0"
       prop_units="false"
       vertical_pattern="false"
       hide_knot="false"
       fuse_tolerance="0" />
    <radialGradient
       inkscape:collect="always"
       xlink:href="#linearGradient14175"
       id="radialGradient14177"
       cx="39.6875"
       cy="39.6875"
       fx="39.6875"
       fy="39.6875"
       r="34.395832"
       gradientUnits="userSpaceOnUse" />
    <linearGradient
       inkscape:collect="always"
       xlink:href="#linearGradient19258"
       id="linearGradient19264"
       x1="3.4290411"
       y1="1.9891332"
       x2="75.384689"
       y2="64.009026"
       gradientUnits="userSpaceOnUse" />
    <linearGradient
       inkscape:collect="always"
       xlink:href="#linearGradient19996"
       id="linearGradient19998"
       x1="7.0476837"
       y1="14.524075"
       x2="72.514404"
       y2="29.304075"
       gradientUnits="userSpaceOnUse" />
    <linearGradient
       inkscape:collect="always"
       xlink:href="#linearGradient20014"
       id="linearGradient20008"
       gradientUnits="userSpaceOnUse"
       x1="3.4290411"
       y1="1.9891332"
       x2="76.600769"
       y2="75.982704" />
    <linearGradient
       inkscape:collect="always"
       xlink:href="#linearGradient20020"
       id="linearGradient20022"
       x1="16.182421"
       y1="16.488504"
       x2="65.437645"
       y2="60.360798"
       gradientUnits="userSpaceOnUse" />
  </defs>
  <g
     inkscape:label="Background"
     inkscape:groupmode="layer"
     id="layer1"
     style="display:inline">
    <circle
       style="fill:url(#radialGradient14177);fill-opacity:1;stroke:none;stroke-width:0.264583;stroke-linecap:round;stroke-linejoin:round;stroke-dasharray:none;stroke-opacity:1;paint-order:stroke fill markers"
       id="path13730"
       cx="39.6875"
       cy="39.6875"
       r="34.395832" />
    <text
       xml:space="preserve"
       style="font-size:6.35px;line-height:125%;font-family:Arial;-inkscape-font-specification:Arial;letter-spacing:0px;word-spacing:0px;fill:#b5b5b5;fill-opacity:1;stroke:none;stroke-width:0.264583px;stroke-linecap:butt;stroke-linejoin:miter;stroke-opacity:1"
       x="51.909134"
       y="-14.2853"
       id="text1448"
       transform="rotate(32.840437)"><tspan
         sodipodi:role="line"
         id="tspan1446"
         style="fill:#b5b5b5;fill-opacity:1;stroke:none;stroke-width:0.264583px"
         x="51.909134"
         y="-14.2853">3</tspan></text>
    <text
       xml:space="preserve"
       style="font-size:6.35px;line-height:125%;font-family:Arial;-inkscape-font-specification:Arial;letter-spacing:0px;word-spacing:0px;display:inline;fill:#ff9900;fill-opacity:1;stroke:none;stroke-width:0.264583px;stroke-linecap:butt;stroke-linejoin:miter;stroke-opacity:1"
       x="36.789043"
       y="-67.002518"
       id="text1448-9"
       transform="rotate(90.73971)"><tspan
         sodipodi:role="line"
         id="tspan1446-9"
         style="fill:#ff9900;fill-opacity:1;stroke:none;stroke-width:0.264583px"
         x="36.789043"
         y="-67.002518">E</tspan></text>
    <text
       xml:space="preserve"
       style="font-size:6.35px;line-height:125%;font-family:Arial;-inkscape-font-specification:Arial;letter-spacing:0px;word-spacing:0px;display:inline;fill:#b5b5b5;fill-opacity:1;stroke:none;stroke-width:0.264583px;stroke-linecap:butt;stroke-linejoin:miter;stroke-opacity:1"
       x="-12.730323"
       y="-81.003151"
       id="text1448-9-2"
       transform="rotate(145.99268)"><tspan
         sodipodi:role="line"
         id="tspan1446-9-5"
         style="fill:#b5b5b5;fill-opacity:1;stroke:none;stroke-width:0.264583px"
         x="-12.730323"
         y="-81.003151">15</tspan></text>
    <text
       xml:space="preserve"
       style="font-size:6.35px;line-height:125%;font-family:Arial;-inkscape-font-specification:Arial;letter-spacing:0px;word-spacing:0px;display:inline;fill:#b5b5b5;fill-opacity:1;stroke:none;stroke-width:0.264583px;stroke-linecap:butt;stroke-linejoin:miter;stroke-opacity:1"
       x="-58.551483"
       y="-39.016632"
       id="text1506"
       transform="rotate(-148.52607)"><tspan
         sodipodi:role="line"
         id="tspan1504"
         style="fill:#b5b5b5;fill-opacity:1;stroke:none;stroke-width:0.264583px"
         x="-58.551483"
         y="-39.016632">21</tspan></text>
    <text
       xml:space="preserve"
       style="font-size:6.35px;line-height:125%;font-family:Arial;-inkscape-font-specification:Arial;letter-spacing:0px;word-spacing:0px;display:inline;fill:#b5b5b5;fill-opacity:1;stroke:none;stroke-width:0.264583px;stroke-linecap:butt;stroke-linejoin:miter;stroke-opacity:1"
       x="-18.446409"
       y="28.077171"
       id="text1510"
       transform="rotate(-60.000191)"><tspan
         sodipodi:role="line"
         id="tspan1508"
         style="fill:#b5b5b5;fill-opacity:1;stroke:none;stroke-width:0.264583px"
         x="-18.446409"
         y="28.077171">30</tspan></text>
    <text
       xml:space="preserve"
       style="font-size:6.35px;line-height:125%;font-family:Arial;-inkscape-font-specification:Arial;letter-spacing:0px;word-spacing:0px;display:inline;fill:#b5b5b5;fill-opacity:1;stroke:none;stroke-width:0.264583px;stroke-linecap:butt;stroke-linejoin:miter;stroke-opacity:1"
       x="54.651409"
       y="-37.428265"
       id="text1518"
       transform="rotate(56.637822)"><tspan
         sodipodi:role="line"
         id="tspan1516"
         style="fill:#b5b5b5;fill-opacity:1;stroke:none;stroke-width:0.264583px"
         x="54.651409"
         y="-37.428265">6</tspan></text>
    <text
       xml:space="preserve"
       style="font-size:6.35px;line-height:125%;font-family:Arial;-inkscape-font-specification:Arial;letter-spacing:0px;word-spacing:0px;display:inline;fill:#b5b5b5;fill-opacity:1;stroke:none;stroke-width:0.264583px;stroke-linecap:butt;stroke-linejoin:miter;stroke-opacity:1"
       x="9.3246593"
       y="-80.450233"
       id="text1588"
       transform="rotate(121.08636)"><tspan
         sodipodi:role="line"
         id="tspan1586"
         style="fill:#b5b5b5;fill-opacity:1;stroke:none;stroke-width:0.264583px"
         x="9.3246593"
         y="-80.450233">12</tspan></text>
    <text
       xml:space="preserve"
       style="font-size:6.35px;line-height:125%;font-family:Arial;-inkscape-font-specification:Arial;letter-spacing:0px;word-spacing:0px;display:inline;fill:#b5b5b5;fill-opacity:1;stroke:none;stroke-width:0.264583px;stroke-linecap:butt;stroke-linejoin:miter;stroke-opacity:1"
       x="-57.824913"
       y="-12.804697"
       id="text1596"
       transform="rotate(-121.64328)"><tspan
         sodipodi:role="line"
         id="tspan1594"
         style="fill:#b5b5b5;fill-opacity:1;stroke:none;stroke-width:0.264583px"
         x="-57.824913"
         y="-12.804697">24</tspan></text>
    <text
       xml:space="preserve"
       style="font-size:6.35px;line-height:125%;font-family:Arial;-inkscape-font-specification:Arial;letter-spacing:0px;word-spacing:0px;display:inline;fill:#b5b5b5;fill-opacity:1;stroke:none;stroke-width:0.264583px;stroke-linecap:butt;stroke-linejoin:miter;stroke-opacity:1"
       x="9.1861792"
       y="28.943174"
       id="text1600"
       transform="rotate(-33.060489)"><tspan
         sodipodi:role="line"
         id="tspan1598"
         style="fill:#b5b5b5;fill-opacity:1;stroke:none;stroke-width:0.264583px"
         x="9.1861792"
         y="28.943174">33</tspan></text>
    <text
       xml:space="preserve"
       style="font-size:6.35px;line-height:125%;font-family:Arial;-inkscape-font-specification:Arial;letter-spacing:0px;word-spacing:0px;display:inline;fill:#ff9900;fill-opacity:1;stroke:none;stroke-width:0.264583px;stroke-linecap:butt;stroke-linejoin:miter;stroke-opacity:1"
       x="37.699184"
       y="13.694942"
       id="text5052"><tspan
         sodipodi:role="line"
         id="tspan5050"
         style="fill:#ff9900;fill-opacity:1;stroke:none;stroke-width:0.264583px"
         x="37.699184"
         y="13.694942">N</tspan></text>
    <text
       xml:space="preserve"
       style="font-size:6.35px;line-height:125%;font-family:Arial;-inkscape-font-specification:Arial;letter-spacing:0px;word-spacing:0px;display:inline;fill:#ff9900;fill-opacity:1;stroke:none;stroke-width:0.264583px;stroke-linecap:butt;stroke-linejoin:miter;stroke-opacity:1"
       x="-42.089714"
       y="15.461583"
       id="text5056"
       transform="rotate(-87.621763)"><tspan
         sodipodi:role="line"
         id="tspan5054"
         style="fill:#ff9900;fill-opacity:1;stroke:none;stroke-width:0.264583px"
         x="-42.089714"
         y="15.461583">W</tspan></text>
    <text
       xml:space="preserve"
       style="font-size:6.35px;line-height:125%;font-family:Arial;-inkscape-font-specification:Arial;letter-spacing:0px;word-spacing:0px;display:inline;fill:#ff9900;fill-opacity:1;stroke:none;stroke-width:0.264583px;stroke-linecap:butt;stroke-linejoin:miter;stroke-opacity:1"
       x="-31.05694"
       y="-71.188583"
       id="text5060"
       transform="rotate(171.35147)"><tspan
         sodipodi:role="line"
         id="tspan5058"
         style="fill:#ff9900;fill-opacity:1;stroke:none;stroke-width:0.264583px"
         x="-31.05694"
         y="-71.188583">S</tspan></text>
    <path
       style="fill:none;fill-opacity:1;stroke:#bababa;stroke-width:0.529167;stroke-linecap:round;stroke-linejoin:round;stroke-dasharray:none;stroke-opacity:1;paint-order:stroke fill markers"
       id="path5116"
       inkscape:path-effect="#path-effect5185"
       sodipodi:type="arc"
       sodipodi:cx="39.6875"
       sodipodi:cy="39.6875"
       sodipodi:rx="23.283333"
       sodipodi:ry="23.283333"
       d="m 64.955208,39.6875 h -3.96875 z m -3.627271,12.477636 -3.368778,-2.045864 z m 2.784278,-8.157723 -3.079098,-0.610604 z m -1.213043,4.106834 -2.919562,-1.15463 z M 64.044293,41.836801 61.69312,41.6008 Z m -0.823807,4.142414 -2.255479,-0.66798 z m -1.542101,3.91483 -2.111862,-1.052035 z m -0.350448,2.271091 -3.368778,-2.045864 z m -9.162823,9.162814 -2.04586,-3.36878 z m 6.309374,-5.882872 -2.406075,-2.054249 z m -3.029001,3.029062 -2.054298,-2.406035 z m 4.033046,-4.945319 -1.918487,-1.390816 z m -2.738397,3.211333 -1.678613,-1.678615 z m -3.211334,2.738393 -1.390815,-1.918488 z m -1.363688,1.849403 -2.04586,-3.36878 z m -12.477629,3.627242 v -3.968748 z m 8.427261,-2.056217 -1.154695,-2.919537 z m -4.106806,1.213134 -0.610676,-3.079081 z m 5.886084,-2.433713 -1.052033,-2.111864 z m -3.914833,1.542097 -0.667978,-2.25548 z m -4.142414,0.823802 -0.235998,-2.351173 z m -2.149292,0.910897 V 60.986444 Z M 27.209843,61.327925 29.25571,57.959148 Z m 8.15772,2.784285 0.610607,-3.079097 z m -4.106833,-1.213047 1.154634,-2.919561 z m 6.277445,1.145127 0.236004,-2.351172 z M 33.395762,63.22048 34.063745,60.965 Z m -3.914829,-1.542106 1.052037,-2.111861 z m -2.27109,-0.350449 2.045867,-3.368777 z m -9.162806,-9.162832 3.368782,-2.045857 z m 5.882866,6.309379 2.054252,-2.406073 z m -3.029059,-3.029004 2.406037,-2.054295 z m 4.945316,4.033051 1.390818,-1.918486 z m -3.211331,-2.7384 1.678616,-1.678611 z m -2.738391,-3.211337 1.91849,-1.390813 z m -1.849401,-1.363689 3.368782,-2.045857 z m -3.627244,-12.477644 3.968749,9e-6 z m 2.056223,8.427274 2.919538,-1.154692 z m -1.21313,-4.106807 3.079082,-0.610672 z m 2.433708,5.886087 2.111864,-1.052031 z M 16.1545,45.979168 18.409981,45.311192 Z m -0.823798,-4.142415 2.351174,-0.235996 z m -0.910909,-2.149304 3.968749,9e-6 z m 3.627295,-12.477627 3.368776,2.04587 z m -2.784293,8.157717 3.079096,0.610611 z m 1.213051,-4.106832 2.91956,1.154637 z m -1.145134,6.277444 2.351172,0.236006 z m 0.823815,-4.142412 2.255479,0.667985 z m 1.542109,-3.914828 2.111861,1.05204 z m 0.350452,-2.271089 3.368776,2.04587 z m 9.16284,-9.162798 2.045854,3.368784 z m -6.309384,5.88286 2.406071,2.054254 z m 3.029007,-3.029056 2.054293,2.406039 z m -4.033056,4.945312 1.918484,1.39082 z m 2.738403,-3.211328 1.67861,1.678617 z m 3.21134,-2.738388 1.39081,1.918491 z m 1.36369,-1.8494 2.045854,3.368784 z m 12.477648,-3.627231 -1.3e-5,3.968748 z m -8.427276,2.056214 1.154689,2.919539 z m 4.106808,-1.213126 0.610669,3.079083 z m -5.886089,2.433702 1.052029,2.111865 z m 3.914836,-1.54209 0.667973,2.255482 z m 4.142417,-0.823793 0.235993,2.351174 z m 2.149304,-0.910907 -1.3e-5,3.968748 z M 52.1652,18.047101 50.119326,21.415875 Z M 44.007485,15.2628 43.396871,18.341895 Z m 4.106831,1.213055 -1.15464,2.919558 z m -6.277443,-1.14514 -0.236008,2.351171 z m 4.142411,0.823819 -0.667987,2.255478 z m 3.914826,1.542113 -1.052041,2.111859 z m 2.27109,0.350454 -2.045874,3.368774 z m 9.162789,9.162848 -3.368786,2.045852 z m -5.882855,-6.309389 -2.054256,2.406069 z m 3.029054,3.029009 -2.406041,2.054291 z m -4.945308,-4.03306 -1.390822,1.918483 z m 3.211325,2.738406 -1.678619,1.678608 z m 2.738385,3.211342 -1.918492,1.390809 z m 1.849399,1.363692 -3.368786,2.045852 z m 3.62722,12.477653 -3.968752,-1.8e-5 z m -2.056207,-8.427279 -2.919541,1.154686 z m 1.213122,4.106809 -3.079084,0.610666 z m -2.433696,-5.886091 -2.111866,1.052026 z m 1.542086,3.914837 -2.255483,0.667971 z m 0.823789,4.142418 -2.351175,0.23599 z"
       class="UnoptimicedTransforms" />
  </g>
  <g
     inkscape:groupmode="layer"
     id="layer2"
     inkscape:label="Cursor"
     style="display:inline">
    <path
       style="fill:#a6ff73;fill-rule:evenodd;stroke:none;stroke-width:0.264583px;stroke-linecap:butt;stroke-linejoin:miter;stroke-opacity:1;fill-opacity:1"
       d="m 39.659967,18.857925 -1.944116,10.206609 4.082642,-0.0972 z"
       id="path5206" />
    <path
       style="fill:none;fill-rule:evenodd;stroke:#a7ff74;stroke-width:0.79375;stroke-linecap:butt;stroke-linejoin:miter;stroke-opacity:1;stroke-dasharray:none"
       d="m 39.659967,53.754808 v 8.845727"
       id="path5208" />
    <path
       style="fill:none;fill-opacity:1;stroke:#a7ff74;stroke-width:0.79375;stroke-linecap:round;stroke-linejoin:round;stroke-dasharray:none;stroke-opacity:1;paint-order:stroke fill markers"
       id="path5262"
       sodipodi:type="arc"
       sodipodi:cx="35.091293"
       sodipodi:cy="35.09129"
       sodipodi:rx="2.1166666"
       sodipodi:ry="2.1166666"
       sodipodi:start="1.3233339"
       sodipodi:end="0.27659802"
       sodipodi:arc-type="arc"
       d="m 35.609759,37.143476 a 2.1166666,2.1166666 0 0 1 -2.366656,-1.020455 2.1166666,2.1166666 0 0 1 0.373443,-2.550085 2.1166666,2.1166666 0 0 1 2.559881,-0.298997 2.1166666,2.1166666 0 0 1 0.951078,2.395379"
       sodipodi:open="true" />
    <path
       style="display:inline;fill:none;fill-opacity:1;stroke:#a7ff74;stroke-width:0.79375;stroke-linecap:round;stroke-linejoin:round;stroke-dasharray:none;stroke-opacity:1;paint-order:stroke fill markers"
       id="path5262-8"
       sodipodi:type="arc"
       sodipodi:cx="44.374443"
       sodipodi:cy="34.994087"
       sodipodi:rx="2.1166666"
       sodipodi:ry="2.1166666"
       sodipodi:start="2.7704855"
       sodipodi:end="1.8803511"
       sodipodi:arc-type="arc"
       d="m 42.401866,35.761691 a 2.1166666,2.1166666 0 0 1 0.788551,-2.522129 2.1166666,2.1166666 0 0 1 2.633971,0.212469 2.1166666,2.1166666 0 0 1 0.374091,2.615913 2.1166666,2.1166666 0 0 1 -2.468846,0.942203"
       sodipodi:open="true" />
    <path
       style="display:inline;fill:none;fill-opacity:1;stroke:#a7ff74;stroke-width:0.79375;stroke-linecap:round;stroke-linejoin:round;stroke-dasharray:none;stroke-opacity:1;paint-order:stroke fill markers"
       id="path5262-7"
       sodipodi:type="arc"
       sodipodi:cx="35.091297"
       sodipodi:cy="44.374447"
       sodipodi:rx="2.1166666"
       sodipodi:ry="2.1166666"
       sodipodi:start="5.8644236"
       sodipodi:end="4.9497238"
       sodipodi:arc-type="arc"
       d="m 37.025069,43.513748 a 2.1166666,2.1166666 0 0 1 -0.657118,2.549021 2.1166666,2.1166666 0 0 1 -2.631624,-0.06218 2.1166666,2.1166666 0 0 1 -0.535993,-2.577213 2.1166666,2.1166666 0 0 1 2.388619,-1.10626"
       sodipodi:open="true" />
    <path
       style="display:inline;fill:none;fill-opacity:1;stroke:#a7ff74;stroke-width:0.79375;stroke-linecap:round;stroke-linejoin:round;stroke-dasharray:none;stroke-opacity:1;paint-order:stroke fill markers"
       id="path5262-5"
       sodipodi:type="arc"
       sodipodi:cx="44.325848"
       sodipodi:cy="44.325848"
       sodipodi:rx="2.1166666"
       sodipodi:ry="2.1166666"
       sodipodi:start="4.4199808"
       sodipodi:end="3.4121438"
       sodipodi:arc-type="arc"
       d="m 43.715699,42.299028 a 2.1166666,2.1166666 0 0 1 2.420862,0.930647 2.1166666,2.1166666 0 0 1 -0.297737,2.576436 2.1166666,2.1166666 0 0 1 -2.569314,0.353974 2.1166666,2.1166666 0 0 1 -0.983333,-2.399943"
       sodipodi:open="true" />
    <path
       style="fill:#a6ff73;fill-opacity:1;fill-rule:evenodd;stroke:#a6ff73;stroke-width:0.529167;stroke-linecap:butt;stroke-linejoin:miter;stroke-dasharray:none;stroke-opacity:1"
       d="m 34.925,34.925 c 4.127533,4.318933 4.004362,5.207234 0,9.525 3.952646,-4.385651 5.18353,-4.329841 9.525,0 -4.352552,-4.314852 -4.443997,-5.177661 0,-9.525 -4.415361,4.437869 -5.417298,4.387296 -9.525,0 z"
       id="path5312"
       sodipodi:nodetypes="ccccc" />
  </g>
  <g
     inkscape:groupmode="layer"
     id="layer3"
     inkscape:label="Cover"
     style="display:inline"
     sodipodi:insensitive="true">
    <g
       id="g19252"
       style="fill:url(#linearGradient19264);fill-opacity:1">
      <g
         id="g19248"
         style="fill:url(#linearGradient19264);fill-opacity:1">
        <path
           id="path6062"
           style="display:inline;fill:url(#linearGradient20008);fill-opacity:1;fill-rule:evenodd;stroke:none;stroke-width:0.264583px;stroke-linecap:butt;stroke-linejoin:miter;stroke-opacity:1"
           d="M 2.1166667,0.52916667 C 1.0571564,0.5479461 0.53055379,1.0674571 0.52916667,2.1166667 V 77.258333 c 0.0135109,1.062259 0.53970033,1.5789 1.58750003,1.5875 H 77.258333 c 1.054994,-0.0091 1.55775,-0.517355 1.5875,-1.5875 V 2.1166667 C 78.837133,1.044836 78.318456,0.53826965 77.258333,0.52916667 Z M 3.2550985,1.7156576 H 76.119902 c 1.027997,0.00883 1.53094,0.5000898 1.53944,1.5394409 V 76.119902 c -0.02885,1.037716 -0.516415,1.53064 -1.53944,1.53944 H 3.2550985 c -1.0160482,-0.0083 -1.526339,-0.509371 -1.5394409,-1.53944 V 3.2550985 c 0.00135,-1.0174154 0.512037,-1.5212307 1.5394409,-1.5394409 z" />
      </g>
    </g>
    <path
       id="path17684"
       style="display:inline;fill:url(#linearGradient19998);fill-opacity:1;fill-rule:evenodd;stroke:none;stroke-width:0.256565px;stroke-linecap:butt;stroke-linejoin:miter;stroke-opacity:1"
       d="M 3.2550985,1.7156576 C 2.2276946,1.7338678 1.7170028,2.2376831 1.7156576,3.2550985 V 76.119902 c 0.013102,1.030069 0.5233927,1.531102 1.5394409,1.53944 H 76.119902 c 1.023025,-0.0088 1.510591,-0.501724 1.53944,-1.53944 V 3.2550985 c -0.0085,-1.0393511 -0.511443,-1.530614 -1.53944,-1.5394409 z M 39.6875,7.0150757 A 32.672199,32.672199 0 0 1 72.359924,39.6875 32.672199,32.672199 0 0 1 39.6875,72.359924 32.672199,32.672199 0 0 1 7.0150757,39.6875 32.672199,32.672199 0 0 1 39.6875,7.0150757 Z" />
    <path
       id="path17680"
       style="fill:url(#linearGradient20022);fill-opacity:1;stroke:none;stroke-width:0.263485;stroke-linecap:butt;stroke-linejoin:round;stroke-dasharray:none;stroke-opacity:1;paint-order:stroke fill markers"
       d="M 39.6875,7.0150757 A 32.672199,32.672199 0 0 0 7.0150757,39.6875 32.672199,32.672199 0 0 0 39.6875,72.359924 32.672199,32.672199 0 0 0 72.359924,39.6875 32.672199,32.672199 0 0 0 39.6875,7.0150757 Z m 0,1.0541992 A 31.618258,31.618258 0 0 1 71.305725,39.6875 31.618258,31.618258 0 0 1 39.6875,71.305725 31.618258,31.618258 0 0 1 8.0692749,39.6875 31.618258,31.618258 0 0 1 39.6875,8.0692749 Z" />
    <g
       id="g20086">
      <circle
         style="display:inline;fill:#0d0f14;fill-opacity:1;fill-rule:evenodd;stroke:none;stroke-width:0.264583;stroke-linecap:butt;stroke-linejoin:round;stroke-dasharray:none;stroke-opacity:1;paint-order:stroke fill markers"
         id="path20076"
         cx="6.0854168"
         cy="6.0854168"
         r="2.6458333" />
      <path
         style="fill:none;fill-rule:evenodd;stroke:#0c0c0c;stroke-width:0.529167;stroke-linecap:butt;stroke-linejoin:miter;stroke-dasharray:none;stroke-opacity:1"
         d="M 6.0854167,4.365625 V 7.8052083"
         id="path20079" />
      <path
         style="fill:none;fill-rule:evenodd;stroke:#0c0c0c;stroke-width:0.529167;stroke-linecap:butt;stroke-linejoin:miter;stroke-dasharray:none;stroke-opacity:1"
         d="m 4.3682884,6.1200054 3.437192,-0.034602"
         id="path20081" />
    </g>
    <g
       id="g20094"
       transform="translate(67.204166)">
      <circle
         style="display:inline;fill:#0d0f14;fill-opacity:1;fill-rule:evenodd;stroke:none;stroke-width:0.264583;stroke-linecap:butt;stroke-linejoin:round;stroke-dasharray:none;stroke-opacity:1;paint-order:stroke fill markers"
         id="circle20088"
         cx="6.0854168"
         cy="6.0854168"
         r="2.6458333" />
      <path
         style="fill:none;fill-rule:evenodd;stroke:#0c0c0c;stroke-width:0.529167;stroke-linecap:butt;stroke-linejoin:miter;stroke-dasharray:none;stroke-opacity:1"
         d="M 6.0854167,4.365625 V 7.8052083"
         id="path20090" />
      <path
         style="fill:none;fill-rule:evenodd;stroke:#0c0c0c;stroke-width:0.529167;stroke-linecap:butt;stroke-linejoin:miter;stroke-dasharray:none;stroke-opacity:1"
         d="m 4.3682884,6.1200054 3.437192,-0.034602"
         id="path20092" />
    </g>
    <g
       id="g20102"
       transform="translate(0,67.204166)">
      <circle
         style="display:inline;fill:#0d0f14;fill-opacity:1;fill-rule:evenodd;stroke:none;stroke-width:0.264583;stroke-linecap:butt;stroke-linejoin:round;stroke-dasharray:none;stroke-opacity:1;paint-order:stroke fill markers"
         id="circle20096"
         cx="6.0854168"
         cy="6.0854168"
         r="2.6458333" />
      <path
         style="fill:none;fill-rule:evenodd;stroke:#0c0c0c;stroke-width:0.529167;stroke-linecap:butt;stroke-linejoin:miter;stroke-dasharray:none;stroke-opacity:1"
         d="M 6.0854167,4.365625 V 7.8052083"
         id="path20098" />
      <path
         style="fill:none;fill-rule:evenodd;stroke:#0c0c0c;stroke-width:0.529167;stroke-linecap:butt;stroke-linejoin:miter;stroke-dasharray:none;stroke-opacity:1"
         d="m 4.3682884,6.1200054 3.437192,-0.034602"
         id="path20100" />
    </g>
    <g
       id="g20110"
       transform="translate(67.204166,67.204166)">
      <circle
         style="display:inline;fill:#0d0f14;fill-opacity:1;fill-rule:evenodd;stroke:none;stroke-width:0.264583;stroke-linecap:butt;stroke-linejoin:round;stroke-dasharray:none;stroke-opacity:1;paint-order:stroke fill markers"
         id="circle20104"
         cx="6.0854168"
         cy="6.0854168"
         r="2.6458333" />
      <path
         style="fill:none;fill-rule:evenodd;stroke:#0c0c0c;stroke-width:0.529167;stroke-linecap:butt;stroke-linejoin:miter;stroke-dasharray:none;stroke-opacity:1"
         d="M 6.0854167,4.365625 V 7.8052083"
         id="path20106" />
      <path
         style="fill:none;fill-rule:evenodd;stroke:#0c0c0c;stroke-width:0.529167;stroke-linecap:butt;stroke-linejoin:miter;stroke-dasharray:none;stroke-opacity:1"
         d="m 4.3682884,6.1200054 3.437192,-0.034602"
         id="path20108" />
    </g>
  </g>
</svg>
